<svg width="36" height="42" viewBox="0 0 36 42" fill="none" xmlns="http://www.w3.org/2000/svg">
<mask id="mask0_22_3851" style="mask-type:luminance" maskUnits="userSpaceOnUse" x="0" y="0" width="36" height="42">
<path d="M0 0H35.8522V41.3834H0V0Z" fill="#EE413C"/>
</mask>
<g mask="url(#mask0_22_3851)">
<path fill-rule="evenodd" clip-rule="evenodd" d="M13.8771 0.469709C5.99143 2.05263 -0.846948 10.0497 0.085412 20.6959C1.01777 31.3425 9.43611 44.3153 28.3446 40.7945C36.1983 38.9005 35.4669 30.2144 35.096 25.9316C34.7255 21.6492 37.9833 14.147 33.2778 6.95078C28.5727 -0.245083 19.4308 -0.645272 13.8771 0.469709Z" fill="#EE413C"/>
</g>
<path fill-rule="evenodd" clip-rule="evenodd" d="M6.88376 18.5716C2.85378 20.6062 2.88857 29.2003 7.9128 31.9921C12.9374 34.784 20.2272 33.1895 21.4257 30.9695C23.233 27.6206 19.004 21.4707 14.8713 19.278C11.3728 17.4221 8.92444 17.541 6.88376 18.5716Z" fill="#FFD91D"/>
<path fill-rule="evenodd" clip-rule="evenodd" d="M9.25058 21.0107C6.22011 22.5409 6.21687 28.3183 9.99525 30.4175C13.774 32.5171 18.6429 31.3791 19.515 29.6944C20.5352 27.7243 18.3655 23.1911 15.2573 21.542C12.6265 20.1461 10.7852 20.236 9.25058 21.0107Z" fill="#F3DFA2"/>
<path fill-rule="evenodd" clip-rule="evenodd" d="M35.096 25.9317C34.8501 23.0888 36.2003 18.8274 35.7618 14.1789C34.8901 12.6962 33.3866 12.1054 31.0231 13.3313C28.4999 14.6401 24.0699 19.9967 26.4944 26.6584C27.3811 29.0952 32.059 29.9269 34.6486 27.2001C34.8205 27.019 34.9864 26.7852 35.1453 26.5122C35.1288 26.3121 35.1122 26.1164 35.096 25.9317Z" fill="#FFD91D"/>
<path fill-rule="evenodd" clip-rule="evenodd" d="M30.4508 15.8115C28.5582 16.7934 25.8226 20.5635 27.6412 25.5607C28.3066 27.3885 31.2279 28.2605 33.1703 26.2148C35.1818 24.0966 36.1825 12.8382 30.4508 15.8115Z" fill="#F3DFA2"/>
<path fill-rule="evenodd" clip-rule="evenodd" d="M17.6527 29.4773C16.5905 27.2085 13.321 25.8249 11.2123 27.6689C11.021 27.8357 11.1601 28.2256 11.4421 28.1448C12.5298 27.8337 13.5827 27.4918 14.7217 27.76C15.8321 28.0215 16.7495 28.7328 17.3918 29.6421C17.4949 29.7879 17.7247 29.6314 17.6527 29.4773Z" fill="#1B122E"/>
<path fill-rule="evenodd" clip-rule="evenodd" d="M29.4524 25.7936C29.7966 23.7039 31.0283 22.3334 32.5197 20.9078C32.6985 20.7362 32.5201 20.4311 32.277 20.5385C30.2525 21.432 29.1972 23.6932 29.0022 25.7556C28.9751 26.0425 29.4067 26.0718 29.4524 25.7936Z" fill="#1B122E"/>
<path fill-rule="evenodd" clip-rule="evenodd" d="M29.1933 16.953C28.4292 17.0164 27.7901 17.8156 27.3714 18.3727C26.8148 19.1133 26.3088 19.9751 26.7473 20.8808C26.8816 21.1586 27.2412 21.363 27.5587 21.2862C28.5505 21.0449 28.9158 20.2072 29.2131 19.3217C29.4356 18.6592 29.762 17.7364 29.4198 17.0664C29.3749 16.9784 29.2883 16.9451 29.1933 16.953Z" fill="#1B122E"/>
<path fill-rule="evenodd" clip-rule="evenodd" d="M13.5743 22.9403C13.8829 23.6155 14.814 23.961 15.4742 24.2083C16.3738 24.545 17.2572 24.8077 18.086 24.2015C18.3493 24.0086 18.4152 23.6084 18.2793 23.3278C17.8409 22.4209 16.8697 22.2656 15.9284 22.2148C15.2157 22.1768 14.1652 22.155 13.628 22.6967C13.5613 22.764 13.5334 22.8512 13.5743 22.9403Z" fill="#1B122E"/>
<path fill-rule="evenodd" clip-rule="evenodd" d="M28.7523 29.1959C28.9213 28.7343 25.0151 22.5187 23.6823 23.0152C22.5914 23.4225 21.74 31.3197 22.3087 31.4164" fill="#FFD91D"/>
<path fill-rule="evenodd" clip-rule="evenodd" d="M25.8498 31.7122C23.1947 32.515 18.7554 33.8558 19.8678 37.0185C20.8256 39.7406 25.8413 38.7024 27.6559 37.6695C29.2925 36.7384 33.2319 35.5885 32.7752 32.2915C32.3181 28.9945 27.2017 31.3037 25.8498 31.7122Z" fill="#FFD91D"/>
<path fill-rule="evenodd" clip-rule="evenodd" d="M25.9416 32.3963C23.9143 33.0093 20.525 34.0331 21.3741 36.4477C22.1054 38.5259 25.9351 37.7335 27.3205 36.9446C28.5704 36.2338 31.5778 35.3557 31.2292 32.8381C30.8805 30.3209 26.9739 32.0841 25.9416 32.3963Z" fill="#F3DFA2"/>
<path fill-rule="evenodd" clip-rule="evenodd" d="M24.0615 23.9479C23.2744 24.2411 22.6604 29.9385 23.0705 30.0082C23.4807 30.0775 27.5968 28.7391 27.719 28.4062C27.8407 28.0734 25.0226 23.5897 24.0615 23.9479Z" fill="#F3DFA2"/>
<path fill-rule="evenodd" clip-rule="evenodd" d="M26.3095 33.792C25.5572 34.0024 22.9324 33.6415 22.4426 34.4914C21.9527 35.3409 22.2104 37.2301 27.0712 35.8603C31.932 34.4902 30.7472 32.41 29.785 32.2606C28.8227 32.1112 26.3095 33.792 26.3095 33.792Z" fill="white"/>
<path fill-rule="evenodd" clip-rule="evenodd" d="M24.7339 33.8853C24.8455 34.677 24.9766 35.498 25.2023 36.2674C25.3884 36.2413 25.5837 36.2092 25.792 36.1688C25.6213 35.4033 25.4098 34.6429 25.2371 33.8754C25.0753 33.8778 24.9062 33.881 24.7339 33.8853Z" fill="#1B122E"/>
<path fill-rule="evenodd" clip-rule="evenodd" d="M27.6479 32.9914C27.9461 33.7744 28.2422 34.5807 28.6317 35.3141C28.806 35.2377 28.9638 35.1604 29.1118 35.0823C28.859 34.2871 28.4812 33.5089 28.135 32.7418C27.9695 32.8219 27.8061 32.9059 27.6479 32.9914Z" fill="#1B122E"/>
<path fill-rule="evenodd" clip-rule="evenodd" d="M22.5379 15.3031C22.5618 15.3031 22.5618 15.267 22.5379 15.267C22.5141 15.267 22.5141 15.3031 22.5379 15.3031Z" fill="#FFD91D"/>
<path fill-rule="evenodd" clip-rule="evenodd" d="M7.93276 12.7057C7.35191 12.2544 6.39932 12.3293 5.85245 12.7937C4.98926 13.5271 4.91726 14.8121 5.65991 15.6608C6.13721 16.2064 6.79856 16.6815 7.56184 16.3336C8.02499 16.1232 8.42988 15.5681 8.61757 15.1049C8.98323 14.2035 8.69402 13.2973 7.93276 12.7057Z" fill="#FFD91D"/>
<path fill-rule="evenodd" clip-rule="evenodd" d="M1.69726 15.88C0.757619 16.0936 0.059462 16.9665 0.255237 17.9376C0.512091 19.2107 1.78706 19.8958 3.04139 19.6541C4.16751 19.4366 4.65573 18.3089 4.25771 17.3167C3.86656 16.3424 2.78333 15.6332 1.69726 15.88Z" fill="#FFD91D"/>
<path fill-rule="evenodd" clip-rule="evenodd" d="M1.51662 24.2118C1.94134 24.1749 2.24957 23.9741 2.56265 23.7098C3.09658 23.2589 2.864 22.5647 2.30782 22.281C2.37375 22.3139 2.3604 22.3052 2.26777 22.2548C2.15977 22.1879 2.04732 22.1276 1.93123 22.0746C1.70188 21.9913 1.33784 21.962 1.09797 22.006C0.787726 22.0623 0.500939 22.2592 0.316895 22.5195C0.39658 23.0045 0.492041 23.4919 0.602872 23.9804C0.861748 24.1559 1.1906 24.2399 1.51662 24.2118Z" fill="#FFD91D"/>
<path fill-rule="evenodd" clip-rule="evenodd" d="M31.7983 7.35862C30.7073 8.18079 30.9957 9.71736 31.9969 10.4575C32.3698 10.7333 32.9511 10.7868 33.3661 10.572C33.9053 10.2931 34.3292 9.76649 34.4922 9.19236C34.1872 8.49976 33.8199 7.80636 33.3798 7.11534C32.8677 6.92396 32.3051 6.97706 31.7983 7.35862Z" fill="#FFD91D"/>
<path fill-rule="evenodd" clip-rule="evenodd" d="M14.0024 7.82027C15.5123 8.81163 16.3084 10.2515 16.5135 12.0135C16.6562 13.2375 16.3517 14.8945 16.8973 16.0297C17.2949 16.8574 18.3159 17.2104 18.8939 16.3542C18.9044 16.3391 18.8878 16.3205 18.8709 16.3273C17.6278 16.842 17.9276 13.0128 17.9199 12.5698C17.9037 11.6474 17.8277 10.7246 17.5243 9.84499C16.9993 8.32348 15.8679 7.05476 14.4914 6.20248C12.9871 5.27095 11.1903 4.83352 9.42955 4.70831C8.3455 4.63065 7.11018 4.71861 5.96546 4.60925C5.40402 5.13108 4.8717 5.69412 4.37256 6.29559C4.56712 6.35542 4.76451 6.40812 4.96352 6.44814C8.05265 7.06903 11.1507 5.9481 14.0024 7.82027Z" fill="#FFD91D"/>
<path fill-rule="evenodd" clip-rule="evenodd" d="M19.8956 5.66888C19.6323 7.2934 19.8726 8.99242 20.7386 10.4129C21.1564 11.0988 21.7061 11.6681 22.2999 12.2086C22.8051 12.669 25.9545 14.7773 24.733 15.5595C24.7192 15.5682 24.7281 15.5912 24.7435 15.5916C26.0609 15.6332 26.2102 14.3795 25.5638 13.4789C24.8304 12.4578 23.6744 11.7593 22.8444 10.8166C21.5957 9.39935 21.1678 7.75461 21.5536 5.92048C22.0123 3.74005 23.4382 2.34454 24.7706 0.829763C24.0312 0.613819 23.2841 0.442649 22.5374 0.315857C22.5196 0.337253 22.501 0.359046 22.4836 0.380442C21.2341 1.9178 20.214 3.70637 19.8956 5.66888Z" fill="#FFD91D"/>
<path fill-rule="evenodd" clip-rule="evenodd" d="M14.2213 3.64632C14.2476 3.63839 14.2621 3.59243 14.2265 3.58451C13.2145 3.36024 12.2348 3.11973 11.3494 2.56304C10.9493 2.31143 10.6011 1.99405 10.2471 1.685C9.88874 1.85537 9.53643 2.04279 9.18896 2.24051C9.74231 2.57215 10.2204 3.00483 10.815 3.30556C11.8615 3.83492 13.0948 3.97994 14.2213 3.64632Z" fill="#FFD91D"/>
<path fill-rule="evenodd" clip-rule="evenodd" d="M18.1034 2.37096C18.0913 2.38483 18.1107 2.40266 18.1253 2.39632C19.2837 1.91015 19.6356 1.07847 19.9876 0.0356024C19.5996 0.0149986 19.2158 0.00469669 18.8352 0.00231934C18.8894 0.818546 18.7733 1.61298 18.1034 2.37096Z" fill="#FFD91D"/>
<path fill-rule="evenodd" clip-rule="evenodd" d="M24.0577 8.92635C24.0742 8.95211 24.1224 8.95171 24.1236 8.91447C24.1709 7.42466 24.0144 6.07471 24.6292 4.65385C25.1563 3.43505 26.0959 2.51422 27.135 1.70552C26.8657 1.5819 26.593 1.46819 26.3184 1.35962C23.9557 2.93303 22.4672 6.41349 24.0577 8.92635Z" fill="#FFD91D"/>
<path fill-rule="evenodd" clip-rule="evenodd" d="M3.35081 10.1829C5.89589 10.3497 10.6208 8.39868 12.3027 10.797C12.4718 11.0379 12.8669 10.7784 12.7375 10.5228C11.9621 8.995 10.4388 8.64989 8.80825 8.53458C7.2821 8.42681 4.84704 8.65702 3.01549 8.15619C2.64659 8.73547 2.30358 9.33892 1.99414 9.96853C2.41603 10.0866 2.88079 10.152 3.35081 10.1829Z" fill="#FFD91D"/>
<path fill-rule="evenodd" clip-rule="evenodd" d="M13.8769 0.469537C8.22613 1.60393 3.11453 6.03256 1.01318 12.369C1.32019 11.9538 1.64864 11.5532 1.98842 11.1688C5.29112 7.4352 9.80366 4.74403 14.7057 3.58388C19.6082 2.42373 24.8771 2.79974 29.5559 4.64457C30.6796 5.08756 31.7734 5.62405 32.7963 6.26078C27.9715 -0.269029 19.247 -0.608199 13.8769 0.469537Z" fill="#EE413C"/>
</svg>
