<svg width="36" height="42" viewBox="0 0 36 42" fill="none" xmlns="http://www.w3.org/2000/svg">
<mask id="mask0_22_3885" style="mask-type:luminance" maskUnits="userSpaceOnUse" x="0" y="0" width="36" height="42">
<path d="M0 0H35.8522V41.3834H0V0Z" fill="#7AB2CC"/>
</mask>
<g mask="url(#mask0_22_3885)">
<path fill-rule="evenodd" clip-rule="evenodd" d="M13.8771 0.469739C5.99143 2.05266 -0.846948 10.0497 0.085412 20.6959C1.01777 31.3425 9.43611 44.3154 28.3446 40.7945C36.1983 38.9005 35.4669 30.2145 35.096 25.9316C34.7255 21.6492 37.9833 14.1471 33.2778 6.95082C28.5727 -0.245053 19.4308 -0.645242 13.8771 0.469739Z" fill="#7AB2CC"/>
</g>
<path fill-rule="evenodd" clip-rule="evenodd" d="M6.88376 18.5716C2.85378 20.6062 2.88857 29.2003 7.9128 31.9921C12.9374 34.784 20.2272 33.1895 21.4257 30.9695C23.233 27.6206 19.004 21.4707 14.8713 19.278C11.3728 17.4221 8.92444 17.541 6.88376 18.5716Z" fill="#68A2BD"/>
<path fill-rule="evenodd" clip-rule="evenodd" d="M9.25058 21.0106C6.22011 22.5409 6.21687 28.3182 9.99525 30.4174C13.774 32.517 18.6429 31.3791 19.515 29.6943C20.5352 27.7243 18.3655 23.1911 15.2573 21.542C12.6265 20.1461 10.7852 20.236 9.25058 21.0106Z" fill="white"/>
<path fill-rule="evenodd" clip-rule="evenodd" d="M35.096 25.9317C34.8501 23.0888 36.2003 18.8274 35.7618 14.1789C34.8901 12.6962 33.3866 12.1054 31.0231 13.3313C28.4999 14.6401 24.0699 19.9967 26.4944 26.6584C27.3811 29.0952 32.059 29.9269 34.6486 27.2001C34.8205 27.019 34.9864 26.7852 35.1453 26.5122C35.1288 26.3121 35.1122 26.1164 35.096 25.9317Z" fill="#68A2BD"/>
<path fill-rule="evenodd" clip-rule="evenodd" d="M30.4508 15.8115C28.5582 16.7934 25.8226 20.5635 27.6412 25.5607C28.3066 27.3885 31.2279 28.2605 33.1703 26.2148C35.1818 24.0966 36.1825 12.8382 30.4508 15.8115Z" fill="white"/>
<path fill-rule="evenodd" clip-rule="evenodd" d="M31.6122 19.6049C30.8481 19.6683 30.209 20.4675 29.7904 21.0246C29.2338 21.7651 28.7278 22.6269 29.1662 23.5327C29.3005 23.8105 29.6601 24.0149 29.9777 23.9381C30.9695 23.6968 31.3347 22.8591 31.632 21.9736C31.8545 21.3111 32.1809 20.3883 31.8387 19.7182C31.7938 19.6303 31.7073 19.597 31.6122 19.6049Z" fill="#1B122E"/>
<path fill-rule="evenodd" clip-rule="evenodd" d="M12.0191 26.3463C12.3277 27.0215 13.2589 27.367 13.919 27.6142C14.8186 27.951 15.702 28.2137 16.5308 27.6075C16.7941 27.4145 16.8601 27.0143 16.7242 26.7338C16.2857 25.8269 15.3145 25.6715 14.3732 25.6208C13.6605 25.5828 12.61 25.561 12.0729 26.1026C12.0061 26.17 11.9782 26.2572 12.0191 26.3463Z" fill="#1B122E"/>
<path fill-rule="evenodd" clip-rule="evenodd" d="M28.7523 29.196C28.9213 28.7344 25.0151 22.5188 23.6823 23.0152C22.5914 23.4226 21.74 31.3197 22.3087 31.4164" fill="#68A2BD"/>
<path fill-rule="evenodd" clip-rule="evenodd" d="M25.8498 31.7123C23.1947 32.515 18.7554 33.8558 19.8678 37.0185C20.8256 39.7406 25.8413 38.7025 27.6559 37.6695C29.2925 36.7384 33.2319 35.5885 32.7752 32.2915C32.3181 28.9945 27.2017 31.3037 25.8498 31.7123Z" fill="#68A2BD"/>
<path fill-rule="evenodd" clip-rule="evenodd" d="M25.9416 32.3963C23.9143 33.0093 20.525 34.0331 21.3741 36.4478C22.1054 38.526 25.9351 37.7335 27.3205 36.9446C28.5704 36.2338 31.5778 35.3558 31.2292 32.8381C30.8805 30.3209 26.9739 32.0841 25.9416 32.3963Z" fill="white"/>
<path fill-rule="evenodd" clip-rule="evenodd" d="M24.0615 23.9479C23.2744 24.2411 22.6604 29.9385 23.0705 30.0082C23.4807 30.0775 27.5968 28.7391 27.719 28.4062C27.8407 28.0734 25.0226 23.5897 24.0615 23.9479Z" fill="white"/>
<path fill-rule="evenodd" clip-rule="evenodd" d="M22.5379 15.3031C22.5618 15.3031 22.5618 15.267 22.5379 15.267C22.5141 15.267 22.5141 15.3031 22.5379 15.3031Z" fill="#FFD91D"/>
<path fill-rule="evenodd" clip-rule="evenodd" d="M13.613 10.3254C13.1827 9.70419 12.1706 9.4494 11.4312 9.6981C10.2638 10.0911 9.70639 11.2709 10.1544 12.3198C10.4423 12.9941 10.9468 13.665 11.866 13.5993C12.4235 13.5601 13.0504 13.1779 13.4184 12.8078C14.135 12.0876 14.1769 11.1396 13.613 10.3254Z" fill="#68A2BD"/>
<path fill-rule="evenodd" clip-rule="evenodd" d="M5.60504 11.6194C4.40984 11.5 3.21642 12.075 3.03116 13.0435C2.78856 14.3133 3.99344 15.381 5.57038 15.5807C6.98633 15.7594 8.04207 14.8767 7.99871 13.8202C7.9558 12.7826 6.9865 11.7573 5.60504 11.6194Z" fill="#68A2BD"/>
<path fill-rule="evenodd" clip-rule="evenodd" d="M5.89432 9.05373C6.26726 9.32951 6.84852 9.383 7.26353 9.16824C7.80273 8.8893 8.22664 8.36271 8.38965 7.78858C8.53658 6.76523 8 5.95485 7.27729 5.71156C6.7652 5.52019 6.20255 5.57328 5.69571 5.95485C4.60479 6.77702 4.8932 8.31358 5.89432 9.05373Z" fill="#68A2BD"/>
</svg>
